<?xml version="1.0" encoding="UTF-8"?><svg id="Layer_2" xmlns="http://www.w3.org/2000/svg" viewBox="0 0 577.71 227.42"><defs><style>.cls-1{fill:#fff;}</style></defs><g id="Layer_1-2"><path class="cls-1" d="M526.4,22.94c8.89-9.61,20.83-11.74,32.47-15.03l-.17-7.8-83.23.04c-.32,2.63-.37,5.72-.12,7.68,9.14,1.41,21.2,1.61,21.42,13.44.13,7.06-2.84,13.34-7.72,18.71l-61.37,67.47c-1.1,1.21-3.98,1.81-5.08,1.14-.94-.58-1.76-2.86-1.75-4.33l.11-74.96c0-5.39,1.95-12.29,5.82-15.38,6.08-4.85,12.93-4.86,20.72-6.14l-.25-7.62-132.33-.09-.25,7.64c12.88,2.05,26.1,2.56,30.94,16.53,1.58,6.91,2.91,13.67,2.91,21.11l-.08,121.24L223.6,0l-72.13.02-.15,7.65c14.93,2.02,37.35,5.65,37.38,24.72l.25,155.14c.02,11.98-3.37,28.01-18.81,29.84l9.51-62.22-9.5-.34c-7.64,25.4-15.87,51.16-44.64,57.79-13.32,3.07-27,3.63-40.5,1.14-9.15-1.69-15.57-8.77-15.58-18.73l-.14-165.67c0-6.46,2.29-13.55,7.39-16.5,6.48-3.75,13.09-3.95,20.87-5.11.06-2.18-.01-4.85-.24-7.67L0,.14l.04,7.92c8.44,1.11,15.2,1.52,21.69,6.08,4.55,3.19,6.86,10.05,6.86,16.31l.03,168.69c0,7.25-3.73,14.22-9.81,16.58s-11.65,2.82-18.32,3.82c-.33,2.17-.26,5.12.26,7.77h237.17s.13-7.55.13-7.55c-13.57-2.77-24.55-2.26-30.79-16.41-1.44-5.6-2.64-10.99-2.64-17.2l-.16-140.31,136.49,181.07,23.46.24-.05-187.68c0-7.42,4.38-26.37,9.39-24.97,4.94,1.39,6.57,14.31,6.58,19.88l.25,156.72c.02,12.03-3.1,20.7-1.36,36.32l68.75-.09.13-7.9c-7.29-1.17-14.12-1.42-20.34-5.62-4.05-2.73-6.48-9.26-6.5-14.55l-.26-77.03c0-.8,1.09-2.9,1.85-2.86.57.03,2,.66,2.68,1.52l64.95,81.84c3.02,3.8,3.13,10.3-.66,12.86-4.12,2.78-9.08,3.17-14.48,4.18-.24,1.96-.19,5.09.13,7.55l101.85.05c.54-2.81.55-5.48.03-8.21-15.17-2.19-28.32-9.18-37.78-21.08l-23.1-29.06-57.66-73.02,67.61-73.07Z"/></g></svg>